# xmcd
#
# Track frame offsets: 
#        150
#        19084
#        35853
#        64154
#        124167
#        145165
#        167046
#        209800
#        229603
#        251766
#        334842
#
# Disc length: 4797 seconds
#
# Revision: 0
# Processed by: cddbd v1.5.2PL0 Copyright (c) Steve Scherf et al.
# Submitted via: ExactAudioCopy v0.95b3
#
DISCID=a812bb0b
DTITLE=Joe Cocker  - Fillmore West 1969-10-19  FLAC
DYEAR=1900
DGENRE=
TTITLE0=Do I Still Figure In Your Life
TTITLE1=She Came In Through The Bathroom Window
TTITLE2=Let It Be
TTITLE3=The Letter
TTITLE4=Something
TTITLE5=Feelin' Alright
TTITLE6=Something To Say
TTITLE7=Something's Coming On
TTITLE8=Bye Bye Blackbird
TTITLE9=Let's Go Get Stoned > Slow Down > Let's Go Get Stoned
TTITLE10=I Shall Be Released
EXTD=
EXTT0=
EXTT1=
EXTT2=
EXTT3=
EXTT4=
EXTT5=
EXTT6=
EXTT7=
EXTT8=
EXTT9=
EXTT10=
PLAYORDER=
